HIERARCHY
ROOT Hips
{
 OFFSET 0.000000 0.000000 0.000000
 CHANNELS 6 Xposition Yposition Zposition Yrotation Xrotation Zrotation
 JOINT Chest
 {
  OFFSET 0.000000 9.585900 0.002600
  CHANNELS 3 Yrotation Xrotation Zrotation
  JOINT Chest2
  {
   OFFSET 0.000000 9.601200 -0.005300
   CHANNELS 3 Yrotation Xrotation Zrotation
   JOINT Chest3
   {
    OFFSET 0.000000 9.561800 0.000000
    CHANNELS 3 Yrotation Xrotation Zrotation
    JOINT Chest4
    {
     OFFSET 0.000000 9.552100 0.000000
     CHANNELS 3 Yrotation Xrotation Zrotation
     JOINT Neck
     {
      OFFSET 0.000000 14.453000 0.000000
      CHANNELS 3 Yrotation Xrotation Zrotation
      JOINT Head
      {
       OFFSET 0.000000 8.936500 -0.011300
       CHANNELS 3 Yrotation Xrotation Zrotation
       End Site
       {
        OFFSET 0.000000 17.073600 -0.006000
       }
      }
     }
     JOINT RightCollar
     {
      OFFSET -2.921100 9.558500 0.000000
      CHANNELS 3 Yrotation Xrotation Zrotation
      JOINT RightShoulder
      {
       OFFSET -13.519700 0.000000 0.000000
       CHANNELS 3 Yrotation Xrotation Zrotation
       JOINT RightElbow
       {
        OFFSET 0.000000 -29.696600 0.000000
        CHANNELS 3 Yrotation Xrotation Zrotation
        JOINT RightWrist
        {
         OFFSET 0.000000 -24.004700 0.000000
         CHANNELS 3 Yrotation Xrotation Zrotation
         End Site
         {
          OFFSET 0.000000 -17.728500 0.000000
         }
        }
       }
      }
     }
     JOINT LeftCollar
     {
      OFFSET 2.921100 9.558500 0.000000
      CHANNELS 3 Yrotation Xrotation Zrotation
      JOINT LeftShoulder
      {
       OFFSET 13.519700 0.000000 0.000000
       CHANNELS 3 Yrotation Xrotation Zrotation
       JOINT LeftElbow
       {
        OFFSET 0.000000 -29.696600 0.000000
        CHANNELS 3 Yrotation Xrotation Zrotation
        JOINT LeftWrist
        {
         OFFSET 0.000000 -24.004700 0.000000
         CHANNELS 3 Yrotation Xrotation Zrotation
         End Site
         {
          OFFSET 0.000000 -17.728500 0.000000
         }
        }
       }
      }
     }
    }
   }
  }
 }
 JOINT RightHip
 {
  OFFSET -7.771700 -0.012900 -0.001300
  CHANNELS 3 Yrotation Xrotation Zrotation
  JOINT RightKnee
  {
   OFFSET 0.000000 -40.869800 0.001200
   CHANNELS 3 Yrotation Xrotation Zrotation
   JOINT RightAnkle
   {
    OFFSET 0.000000 -39.717900 0.002100
    CHANNELS 3 Yrotation Xrotation Zrotation
    JOINT RightToe
    {
     OFFSET 0.000000 -4.965400 11.033500
     CHANNELS 3 Yrotation Xrotation Zrotation
     End Site
     {
      OFFSET 0.000000 -1.423100 5.872300
     }
    }
   }
  }
 }
 JOINT LeftHip
 {
  OFFSET 7.771700 -0.012900 -0.001300
  CHANNELS 3 Yrotation Xrotation Zrotation
  JOINT LeftKnee
  {
   OFFSET 0.000000 -40.869800 0.001200
   CHANNELS 3 Yrotation Xrotation Zrotation
   JOINT LeftAnkle
   {
    OFFSET 0.000000 -39.717900 0.002100
    CHANNELS 3 Yrotation Xrotation Zrotation
    JOINT LeftToe
    {
     OFFSET 0.000000 -4.965400 11.033500
     CHANNELS 3 Yrotation Xrotation Zrotation
     End Site
     {
      OFFSET 0.000000 -1.423100 5.872300
     }
    }
   }
  }
 }
}
MOTION
Frames: 12
Frame Time: 0.008333
-101.228160 57.723856 94.004842 175.366982 -32.435827 -1.548026 0.876304 22.463854 2.993599 0.045353 3.185732 0.432356 0.089385 5.177726 0.707659 0.645280 18.937524 2.692481 0.580326 11.829519 -3.173061 2.453304 -13.726176 -6.312067 6.864147 -0.183627 -3.059701 13.948204 -24.198447 -19.949925 -173.090298 -45.304806 -165.025602 14.973374 -9.603099 -41.516099 -4.825709 -5.909461 -2.103711 -3.051026 -15.858357 3.901574 146.857345 -56.798991 -175.559481 -5.832994 -11.174898 28.427122 8.177091 -43.501662 -4.432550 -12.605286 67.899820 -13.284379 11.255767 23.565474 7.206586 -0.356301 -16.832709 2.332600 -5.854638 -40.325215 3.193858 27.665624 66.140738 25.571635 -16.021424 4.528454 -2.226670 0.085622 0.227476 0.044170
-101.228658 57.722602 94.006623 175.361352 -32.448794 -1.543656 0.881228 22.459688 2.986099 0.043660 3.189128 0.434210 0.086248 5.175095 0.708294 0.642251 18.931367 2.680629 0.580092 11.870894 -3.172653 2.435398 -13.594250 -6.341902 6.861043 -0.163125 -3.062486 13.937418 -24.211532 -19.959444 -173.095518 -45.305315 -165.018764 15.000800 -9.580625 -41.477775 -4.832493 -5.902631 -2.122857 -3.060098 -15.852892 3.931995 146.810080 -56.780543 -175.538724 -5.834045 -11.175862 28.443674 8.195877 -43.496414 -4.428896 -12.630699 67.901179 -13.319171 11.253351 23.589512 7.227237 -0.348114 -16.853806 2.327297 -5.829152 -40.307867 3.191002 27.630197 66.138497 25.542270 -16.034174 4.514255 -2.230256 0.097160 0.240349 0.049195
-101.228516 57.721923 94.007770 175.357762 -32.467201 -1.543432 0.889485 22.461300 2.980336 0.039584 3.200716 0.441685 0.084497 5.158742 0.700825 0.643653 18.933799 2.676224 0.566545 11.937798 -3.193297 2.421930 -13.485125 -6.344231 6.852354 -0.146438 -3.070696 13.930133 -24.224184 -19.958919 -173.124636 -45.303412 -164.986996 14.996770 -9.571247 -41.473716 -4.846371 -5.902158 -2.153344 -3.068745 -15.845292 3.973705 146.760460 -56.762581 -175.516100 -5.808059 -11.197204 28.441785 8.222618 -43.482939 -4.434518 -12.648706 67.904302 -13.331061 11.258987 23.605004 7.240942 -0.352388 -16.869383 2.327994 -5.817136 -40.286353 3.195537 27.635653 66.135914 25.545040 -16.051675 4.499110 -2.228568 0.102692 0.251637 0.050611
-101.228894 57.721011 94.009240 175.358716 -32.481795 -1.541543 0.891081 22.468000 2.973960 0.041237 3.190189 0.435388 0.084318 5.155578 0.699019 0.644224 18.948651 2.685947 0.551749 11.994189 -3.224133 2.405490 -13.370930 -6.336990 6.844284 -0.140457 -3.084504 13.927478 -24.231802 -19.946887 -173.190538 -45.298126 -164.916537 14.977985 -9.564500 -41.479601 -4.857600 -5.909054 -2.185589 -3.088605 -15.854024 3.998834 146.720499 -56.764417 -175.490697 -5.792026 -11.206418 28.434656 8.260717 -43.471360 -4.454589 -12.669265 67.911028 -13.336492 11.257585 23.607651 7.249918 -0.356423 -16.874919 2.330376 -5.810624 -40.269659 3.196802 27.627672 66.134355 25.533309 -16.061945 4.490746 -2.227693 0.107355 0.260424 0.052237
-101.229460 57.719689 94.011246 175.366925 -32.489926 -1.541162 0.885930 22.468743 2.965146 0.044696 3.180122 0.428724 0.086787 5.139701 0.686916 0.644343 18.955244 2.688272 0.542039 12.060114 -3.229094 2.387322 -13.242639 -6.326698 6.840043 -0.116920 -3.063374 13.910436 -24.246998 -19.974535 -173.216417 -45.293508 -164.881008 14.933917 -9.562876 -41.506002 -4.870862 -5.892653 -2.201632 -3.108493 -15.884165 3.999321 146.684603 -56.796813 -175.466115 -5.800273 -11.202888 28.431524 8.300157 -43.463091 -4.484845 -12.699049 67.915615 -13.342762 11.259114 23.604361 7.253960 -0.352614 -16.875008 2.331321 -5.810979 -40.260198 3.198257 27.632390 66.126542 25.528932 -16.081927 4.490570 -2.225226 0.108387 0.263472 0.052715
-101.228632 57.718956 94.012367 175.374174 -32.502147 -1.546532 0.886528 22.463659 2.955458 0.044950 3.177409 0.426694 0.084929 5.147416 0.693418 0.644476 18.937377 2.667252 0.532980 12.126807 -3.227663 2.369830 -13.114513 -6.306993 6.826315 -0.093198 -3.056261 13.898142 -24.265388 -19.993327 -173.235533 -45.289429 -164.857625 14.931347 -9.556271 -41.506650 -4.883148 -5.870689 -2.211079 -3.113615 -15.887657 4.011970 146.638107 -56.791809 -175.432835 -5.830239 -11.180155 28.425321 8.333141 -43.448873 -4.505495 -12.730464 67.917495 -13.349730 11.262175 23.597196 7.259460 -0.340233 -16.871650 2.327319 -5.819607 -40.247139 3.209479 27.623177 66.127370 25.513365 -16.089819 4.487416 -2.227421 0.113525 0.265565 0.055051
-101.228041 57.718633 94.012665 175.389892 -32.516648 -1.553187 0.879050 22.458689 2.937696 0.045125 3.174228 0.424326 0.085092 5.142568 0.689665 0.643526 18.930820 2.654604 0.529175 12.193197 -3.218303 2.352092 -12.990051 -6.279247 6.809838 -0.066163 -3.048074 13.880740 -24.292386 -20.060946 -173.183787 -45.284952 -164.915982 14.933736 -9.564914 -41.514832 -4.888577 -5.840566 -2.204433 -3.114950 -15.891563 4.004698 146.609001 -56.788110 -175.412705 -5.824039 -11.182282 28.422144 8.357976 -43.431029 -4.525497 -12.776861 67.921548 -13.375326 11.264794 23.582145 7.264497 -0.339802 -16.864003 2.327239 -5.837999 -40.231866 3.219702 27.616593 66.127571 25.496015 -16.097900 4.487806 -2.228721 0.111412 0.265806 0.056606
-101.227917 57.718285 94.012815 175.411259 -32.529185 -1.559015 0.875099 22.434578 2.899738 0.045507 3.166099 0.419060 0.080804 5.161243 0.708459 0.637558 18.883040 2.597044 0.534637 12.292711 -3.161535 2.332639 -12.870211 -6.245897 6.788351 -0.001298 -2.986687 13.888623 -24.305411 -20.057789 -173.216599 -45.283583 -164.879129 14.983004 -9.570529 -41.473223 -4.893514 -5.762418 -2.137003 -3.113459 -15.896873 3.981507 146.610701 -56.796210 -175.422103 -5.790431 -11.217139 28.463996 8.375786 -43.414330 -4.542055 -12.805770 67.931761 -13.397424 11.257272 23.548548 7.274872 -0.340139 -16.844460 2.327480 -5.862366 -40.218171 3.225815 27.614190 66.122873 25.484900 -16.110239 4.491492 -2.240154 0.136102 0.265200 0.062818
-101.230764 57.717810 94.012682 175.413064 -32.540752 -1.536218 0.867586 22.436611 2.865628 0.048305 3.152505 0.405256 0.083956 5.138131 0.691556 0.640593 18.898971 2.607569 0.535122 12.334415 -3.142100 2.322368 -12.811578 -6.228102 6.738297 0.036113 -3.019440 13.907751 -24.337530 -20.017463 -173.276624 -45.285505 -164.812711 14.993787 -9.574436 -41.466841 -4.900772 -5.737961 -2.151049 -3.112530 -15.896095 3.980318 146.623913 -56.815011 -175.447731 -5.780567 -11.243850 28.501181 8.420014 -43.396641 -4.577221 -12.841250 67.932202 -13.425514 11.239612 23.546184 7.261403 -0.328003 -16.845002 2.342388 -5.856698 -40.208299 3.208385 27.609885 66.126052 25.469751 -16.140017 4.457047 -2.255937 0.168884 0.297998 0.075470
-101.229164 57.717256 94.013204 175.421476 -32.550493 -1.544506 0.865884 22.436464 2.860845 0.050949 3.141081 0.390320 0.085641 5.124841 0.679328 0.641228 18.898956 2.598150 0.524902 12.396718 -3.129700 2.322345 -12.774362 -6.190004 6.719329 0.073695 -3.003128 13.914334 -24.351634 -20.045646 -173.331235 -45.283282 -164.764245 14.978312 -9.577997 -41.481108 -4.905108 -5.700707 -2.181346 -3.116703 -15.900433 3.999257 146.623983 -56.823497 -175.450618 -5.796049 -11.254623 28.511369 8.427905 -43.388109 -4.568185 -12.876042 67.933739 -13.459674 11.226316 23.543369 7.259655 -0.322580 -16.844284 2.350461 -5.878540 -40.197455 3.223342 27.611129 66.127633 25.461020 -16.132630 4.452811 -2.254372 0.169349 0.301686 0.074654
-101.229342 57.714813 94.016496 175.414227 -32.541216 -1.536874 0.874580 22.409117 2.835734 0.050344 3.148883 0.400038 0.089821 5.104567 0.653051 0.640822 18.890916 2.575935 0.516846 12.462702 -3.102932 2.274543 -12.588536 -6.123918 6.700841 0.114821 -2.975212 13.919178 -24.350716 -20.121476 -173.316955 -45.263564 -164.810430 14.977433 -9.576783 -41.484599 -4.907159 -5.656596 -2.148907 -3.103592 -15.901439 3.977366 146.634656 -56.819737 -175.456147 -5.805989 -11.266873 28.519911 8.455084 -43.399717 -4.563957 -12.809006 67.930192 -13.423381 11.207961 23.563188 7.300339 -0.328240 -16.858193 2.347360 -5.881276 -40.206529 3.226191 27.609562 66.124923 25.452681 -16.128096 4.453086 -2.250860 0.164641 0.304173 0.070651
-101.224936 57.713924 94.018051 175.409710 -32.549667 -1.559817 0.906775 22.387436 2.823563 0.039438 3.168542 0.433655 0.092800 5.093821 0.633931 0.642214 18.886405 2.558916 0.514270 12.502861 -3.072415 2.231624 -12.467649 -6.072896 6.691782 0.138395 -2.941745 13.921974 -24.336372 -20.182391 -173.339445 -45.248694 -164.805457 14.953838 -9.585751 -41.516815 -4.899995 -5.612957 -2.201688 -3.115960 -15.908639 4.033006 146.654704 -56.808823 -175.473649 -5.814002 -11.274215 28.533792 8.445315 -43.399113 -4.520385 -12.802827 67.928705 -13.434099 11.218251 23.556708 7.332032 -0.340756 -16.850962 2.342309 -5.905937 -40.195707 3.260795 27.613827 66.130853 25.452265 -16.088014 4.477666 -2.222050 0.129786 0.275559 0.046695
